<svg xmlns="http://www.w3.org/2000/svg" viewBox="0 0 417.53 65.52">
    <path d="M22.87 19.59c3.17 0 6.16.6 8.97 1.8 2.82 1.2 5.26 2.83 7.35 4.88 2.08 2.05 3.72 4.49 4.93 7.3 1.2 2.81 1.8 5.81 1.8 8.97s-.6 6.13-1.8 8.89c-1.2 2.76-2.84 5.18-4.93 7.26-2.08 2.08-4.53 3.73-7.35 4.93s-5.81 1.8-8.97 1.8-6.13-.6-8.88-1.8c-2.76-1.2-5.18-2.84-7.26-4.93-2.08-2.08-3.72-4.5-4.93-7.26C.6 48.67 0 45.71 0 42.54V3.89a3.74 3.74 0 0 1 7.48 0v21.68c2.05-1.82 4.4-3.27 7.04-4.35 2.64-1.08 5.42-1.63 8.36-1.63Zm0 7.57c-2.11 0-4.11.4-5.98 1.19s-3.5 1.89-4.88 3.3-2.48 3.05-3.3 4.93-1.23 3.87-1.23 5.98.41 4.11 1.23 5.98c.82 1.88 1.92 3.51 3.3 4.88 1.38 1.38 3 2.48 4.88 3.3 1.88.82 3.87 1.23 5.98 1.23s4.19-.41 6.07-1.23c1.88-.82 3.5-1.92 4.88-3.3s2.46-3 3.25-4.88 1.19-3.87 1.19-5.98-.4-4.1-1.19-5.98c-.79-1.88-1.88-3.52-3.25-4.93-1.38-1.41-3.01-2.51-4.88-3.3s-3.9-1.19-6.07-1.19Zm52.26-7.74c3.17 0 6.16.6 8.97 1.8 2.82 1.2 5.26 2.85 7.35 4.93 2.08 2.08 3.72 4.52 4.93 7.3 1.2 2.79 1.8 5.76 1.8 8.93v18.17a3.83 3.83 0 0 1-7.66 0v-1.1c-2.05 1.82-4.38 3.24-6.99 4.27-2.61 1.03-5.41 1.54-8.4 1.54-3.17 0-6.13-.6-8.89-1.8-2.76-1.2-5.18-2.83-7.26-4.88s-3.73-4.47-4.93-7.26c-1.2-2.79-1.8-5.76-1.8-8.93s.6-6.14 1.8-8.93c1.2-2.79 2.84-5.22 4.93-7.3 2.08-2.08 4.5-3.72 7.26-4.93 2.76-1.2 5.72-1.8 8.89-1.8Zm0 7.57c-2.11 0-4.11.4-5.98 1.19-1.88.79-3.5 1.89-4.88 3.3a16.276 16.276 0 0 0-3.3 4.93c-.82 1.88-1.23 3.87-1.23 5.98s.41 4.11 1.23 5.98c.82 1.88 1.92 3.51 3.3 4.88 1.38 1.38 3 2.48 4.88 3.3 1.88.82 3.87 1.23 5.98 1.23s4.19-.41 6.07-1.23c1.88-.82 3.5-1.92 4.88-3.3s2.46-3 3.25-4.88 1.19-3.87 1.19-5.98-.4-4.1-1.19-5.98c-.79-1.88-1.88-3.52-3.25-4.93a14.826 14.826 0 0 0-4.88-3.3c-1.88-.79-3.9-1.19-6.07-1.19Zm54.54 38.09c-3.17 0-6.13-.6-8.88-1.8-2.76-1.2-5.18-2.83-7.26-4.88s-3.73-4.47-4.93-7.26c-1.2-2.79-1.8-5.76-1.8-8.93s.6-6.14 1.8-8.93c1.2-2.79 2.84-5.22 4.93-7.3 2.08-2.08 4.5-3.72 7.26-4.93 2.76-1.2 5.72-1.8 8.88-1.8 2.46 0 4.87.57 7.21 1.72 1.08.53 2.11 1.14 3.11 1.83 1.87 1.31 2.14 3.96.53 5.58l-.18.18c-1.26 1.26-3.23 1.38-4.7.37-.54-.37-1.1-.71-1.66-1-1.41-.73-2.85-1.1-4.31-1.1-2.11 0-4.11.4-5.98 1.19-1.88.79-3.51 1.89-4.88 3.3a16.276 16.276 0 0 0-3.3 4.93c-.82 1.88-1.23 3.87-1.23 5.98s.41 4.11 1.23 5.98c.82 1.88 1.92 3.5 3.3 4.88s3 2.48 4.88 3.3c1.88.82 3.87 1.23 5.98 1.23 1.47 0 2.9-.35 4.31-1.06.57-.28 1.13-.61 1.67-.99 1.48-1.02 3.45-.92 4.72.35l.14.14c1.62 1.62 1.34 4.29-.54 5.59-.99.68-2.01 1.27-3.08 1.78-2.35 1.11-4.75 1.67-7.21 1.67ZM153.2.06h.01a3.73 3.73 0 0 1 3.73 3.73V38.6l17.03-17.03c.7-.7 1.65-1.09 2.64-1.09 3.33 0 4.99 4.02 2.64 6.37l-15.62 15.62 15.62 15.62c2.35 2.35.69 6.37-2.64 6.37-.99 0-1.94-.39-2.64-1.09l-17.03-17.03v14.39a3.73 3.73 0 0 1-3.73 3.73h-.01a3.73 3.73 0 0 1-3.73-3.73V3.79A3.73 3.73 0 0 1 153.2.06Zm70.17 64.4c-2.09 0-3.78-1.69-3.78-3.78V42.47c0-3.17.64-6.16 1.94-8.97 1.29-2.82 3.05-5.25 5.28-7.3 2.23-2.05 4.82-3.68 7.79-4.88a24.21 24.21 0 0 1 5.06-1.43c2.34-.4 4.49 1.35 4.49 3.72 0 1.88-1.38 3.43-3.23 3.74-1.16.2-2.29.5-3.37.92-2.05.79-3.86 1.89-5.41 3.3a15.484 15.484 0 0 0-3.65 4.93c-.88 1.88-1.32 3.87-1.32 5.98v18.21c0 2.09-1.69 3.78-3.78 3.78Zm45.22-45.04c3.17 0 6.16.6 8.97 1.8 2.82 1.2 5.26 2.85 7.35 4.93 2.08 2.08 3.72 4.52 4.93 7.3 1.2 2.79 1.8 5.76 1.8 8.93v18.17a3.83 3.83 0 0 1-7.66 0v-1.1c-2.05 1.82-4.38 3.24-6.99 4.27-2.61 1.03-5.41 1.54-8.4 1.54-3.17 0-6.13-.6-8.89-1.8s-5.18-2.83-7.26-4.88-3.72-4.47-4.93-7.26c-1.2-2.79-1.8-5.76-1.8-8.93s.6-6.14 1.8-8.93c1.2-2.79 2.84-5.22 4.93-7.3 2.08-2.08 4.5-3.72 7.26-4.93 2.76-1.2 5.72-1.8 8.89-1.8Zm0 7.57c-2.11 0-4.11.4-5.98 1.19-1.88.79-3.5 1.89-4.88 3.3a16.276 16.276 0 0 0-3.3 4.93c-.82 1.88-1.23 3.87-1.23 5.98s.41 4.11 1.23 5.98c.82 1.88 1.92 3.51 3.3 4.88 1.38 1.38 3 2.48 4.88 3.3 1.88.82 3.87 1.23 5.98 1.23s4.19-.41 6.07-1.23c1.88-.82 3.5-1.92 4.88-3.3s2.46-3 3.25-4.88 1.19-3.87 1.19-5.98-.4-4.1-1.19-5.98c-.79-1.88-1.88-3.52-3.25-4.93a14.826 14.826 0 0 0-4.88-3.3c-1.88-.79-3.9-1.19-6.07-1.19Zm49.17-7.49c2.82 0 5.41.62 7.79 1.85s4.38 2.9 6.03 5.01c1.7-2.11 3.72-3.78 6.07-5.01 2.34-1.23 4.96-1.85 7.83-1.85 2.4 0 4.68.47 6.82 1.41 2.14.94 4 2.2 5.59 3.78s2.84 3.45 3.78 5.59c.94 2.14 1.41 4.41 1.41 6.82v23.62a3.74 3.74 0 0 1-3.74 3.74h-.09a3.74 3.74 0 0 1-3.74-3.74V37.1c0-1.41-.26-2.71-.79-3.92-.53-1.2-1.25-2.26-2.16-3.17-.91-.91-1.97-1.63-3.17-2.16-1.2-.53-2.51-.79-3.92-.79s-2.73.26-3.96.79-2.3 1.25-3.21 2.16c-.91.91-1.63 1.97-2.16 3.17-.53 1.2-.79 2.51-.79 3.92v23.62a3.74 3.74 0 0 1-7.48 0V37.1c0-1.41-.26-2.71-.79-3.92a9.977 9.977 0 0 0-2.2-3.17c-.94-.91-2.01-1.63-3.21-2.16-1.2-.53-2.51-.79-3.92-.79s-2.73.26-3.96.79-2.3 1.25-3.21 2.16c-.91.91-1.63 1.97-2.16 3.17-.53 1.2-.79 2.51-.79 3.92v23.62a3.74 3.74 0 0 1-7.48 0V37.1c0-2.4.47-4.68 1.41-6.82.94-2.14 2.2-4 3.78-5.59s3.45-2.84 5.59-3.78c2.14-.94 4.41-1.41 6.82-1.41Zm76.89 46.02c-3.17 0-6.14-.6-8.93-1.8-2.79-1.2-5.22-2.84-7.3-4.93-2.08-2.08-3.73-4.5-4.93-7.26-1.2-2.76-1.8-5.72-1.8-8.88s.6-6.16 1.8-8.97c1.2-2.82 2.84-5.25 4.93-7.3 2.08-2.05 4.52-3.68 7.3-4.88 2.79-1.2 5.76-1.8 8.93-1.8s6.14.6 8.93 1.8c2.79 1.2 5.21 2.83 7.26 4.88s3.68 4.49 4.88 7.3c1.2 2.81 1.8 5.81 1.8 8.97v1.32c0 1.32-1.06 2.38-2.36 2.38h-35.38c.41 1.7 1.08 3.25 2.02 4.66.94 1.41 2.05 2.64 3.34 3.69s2.74 1.88 4.36 2.46c1.61.59 3.33.88 5.15.88 1.41 0 2.81-.37 4.22-1.1.84-.44 1.67-.97 2.47-1.59.96-.74 2.33-.61 3.18.25l1.85 1.85c1 1 .95 2.68-.16 3.56a25.111 25.111 0 0 1-4.4 2.79c-2.32 1.14-4.71 1.72-7.17 1.72Zm11.29-26.66c1.81 0 3-1.93 2.15-3.52-.2-.37-.41-.74-.64-1.1-.91-1.44-2.01-2.67-3.3-3.7-1.29-1.03-2.74-1.83-4.35-2.42-1.61-.59-3.33-.88-5.15-.88s-3.53.29-5.15.88c-1.61.59-3.07 1.39-4.36 2.42a15.382 15.382 0 0 0-3.34 3.7c-.23.36-.45.72-.65 1.09-.86 1.59.34 3.53 2.15 3.53h22.64ZM212.57 8.49c-7.13 0-10.69 3.72-10.69 11.17v2.11h7.79c1.11 0 2.06.41 2.85 1.24s1.18 1.82 1.18 2.98-.39 2.2-1.18 3.03c-.79.83-1.74 1.24-2.85 1.24h-7.79v30.46c0 .57-.1 1.11-.31 1.62s-.49.97-.85 1.36a3.83 3.83 0 0 1-2.87 1.23c-.57 0-1.1-.11-1.59-.32-.49-.22-.92-.52-1.28-.91a4.34 4.34 0 0 1-.85-1.36c-.21-.52-.31-1.06-.31-1.62V30.26h-1.86c-1.16 0-2.12-.41-2.89-1.22-.76-.81-1.14-1.83-1.14-3.05s.38-2.23 1.14-3.03c.76-.8 1.72-1.2 2.89-1.2h1.86v-2.11c0-13.1 6.25-19.66 18.75-19.66 1.11 0 2.06.41 2.85 1.24.79.83 1.18 1.82 1.18 2.98s-.39 2.2-1.18 3.03c-.79.83-1.74 1.24-2.85 1.24Z" style="fill:#fff"/>
</svg>
